<?xml version="1.0" encoding="UTF-8"?>
<!--Generator: Apple Native CoreSVG 341-->
<!DOCTYPE svg
PUBLIC "-//W3C//DTD SVG 1.1//EN"
       "http://www.w3.org/Graphics/SVG/1.1/DTD/svg11.dtd">
<svg version="1.1" xmlns="http://www.w3.org/2000/svg" xmlns:xlink="http://www.w3.org/1999/xlink" viewBox="0 0 674.111 578.036">
 <g>
  <rect height="578.036" opacity="0" width="674.111" x="0" y="0"/>
  <path d="M281.215 551.366L281.215 348.73C281.215 335.014 273.173 327.173 259.389 327.173C252.964 327.173 247.422 329.477 242.388 333.291L120.801 433.369C109.717 442.612 109.316 457.372 120.801 466.572L242.388 566.806C247.422 570.663 252.964 572.924 259.389 572.924C273.173 572.924 281.215 565.082 281.215 551.366ZM645.488 273.535C629.448 273.535 616.865 286.162 616.865 302.402L616.865 330.336C616.865 386.757 579.355 422.006 519.653 422.006L234.585 422.006C219.077 422.006 206.538 434.545 206.538 450.253C206.538 465.717 219.077 478.456 234.585 478.456L515.571 478.456C613.803 478.456 674.111 424.218 674.111 335.463L674.111 302.402C674.111 286.162 661.684 273.535 645.488 273.535Z" fill="black" fill-opacity="0.85"/>
  <path d="M392.939 21.3573L392.939 223.994C392.939 237.709 400.937 245.551 414.765 245.551C421.147 245.551 426.689 243.447 431.723 239.433L553.51 139.355C564.394 130.312 564.794 115.351 553.51 106.152L431.723 6.11813C426.689 2.10448 421.147 0 414.765 0C400.937 0 392.939 7.84174 392.939 21.3573ZM28.6668 299.189C44.7067 299.189 57.2896 286.562 57.2896 270.322L57.2896 242.387C57.2896 185.966 94.7554 150.918 154.502 150.918L439.57 150.918C455.034 150.918 467.773 138.178 467.773 122.671C467.773 107.007 455.034 94.4677 439.57 94.4677L158.54 94.4677C60.3514 94.4677 0 148.506 0 237.26L0 270.322C0 286.562 12.6269 299.189 28.6668 299.189Z" fill="black" fill-opacity="0.85"/>
 </g>
</svg>
