<svg xmlns="http://www.w3.org/2000/svg" viewBox="0 0 58 58" role="img">
  <path fill="#000" d="M31.5 56.8c2.4 0 4.4-.9 6.1-2.6l16.6-16.6c3.5-3.5 3.5-8.6 0-12.1L34.1 5.4C30.8 2.1 27.9 1 23.2 1H8.4C3.8 1 1 3.8 1 8.4v14.8c0 4.7 1.1 7.6 4.4 10.9l20 20c1.7 1.8 3.7 2.7 6.1 2.7Zm0-4.4c-1.1 0-2-.4-2.9-1.3l-20-20c-2.5-2.5-3.2-4.3-3.2-7.9V8.4c0-2.2.8-3 3-3h14.8c3.6 0 5.4.7 7.9 3.2l20.1 20.1c1.8 1.8 1.8 4.1 0 5.9L34.6 51.1c-.9.9-1.9 1.3-3.1 1.3ZM17.2 21.6c2.5 0 4.6-2 4.6-4.6s-2.1-4.6-4.6-4.6-4.6 2.1-4.6 4.6 2.1 4.6 4.6 4.6Z"/>
</svg>
